<?xml version="1.0" encoding="UTF-8"?>
<svg version="1.1" xmlns="http://www.w3.org/2000/svg" width="236" height="58">
<path d="M0 0 C3.3 0 6.6 0 10 0 C12 5 14 10 16 15 C16.34933594 14.00097656 16.69867188 13.00195312 17.05859375 11.97265625 C17.51807919 10.66921795 17.97772279 9.3658354 18.4375 8.0625 C18.66759766 7.40314453 18.89769531 6.74378906 19.13476562 6.06445312 C20.88671875 1.11328125 20.88671875 1.11328125 22 0 C24.97 0 27.94 0 31 0 C31 8.91 31 17.82 31 27 C28.69 27 26.38 27 24 27 C23.67 23.04 23.34 19.08 23 15 C21.68 18.96 20.36 22.92 19 27 C17.02 27 15.04 27 13 27 C12.35242375 25.56328432 11.70700547 24.12559584 11.0625 22.6875 C10.70285156 21.88699219 10.34320313 21.08648437 9.97265625 20.26171875 C9 18 9 18 8 15 C7.67 18.96 7.34 22.92 7 27 C4.69 27 2.38 27 0 27 C0 18.09 0 9.18 0 0 Z " fill="#929497" transform="translate(128,14)"/>
<path d="M0 0 C9.9172754 0.15719024 18.80359094 0.80359094 26.125 8.125 C27.93038516 14.05697982 28.03794117 19.80435521 25.375 25.4375 C20.60335856 30.58584998 15.28032008 33.82239336 8.17578125 34.1171875 C5.45024983 34.12416709 2.72473002 34.06645683 0 34 C0 27.07 0 20.14 0 13 C2.31 13 4.62 13 7 13 C7 17.62 7 22.24 7 27 C8.258125 26.566875 9.51625 26.13375 10.8125 25.6875 C11.87404297 25.32205078 11.87404297 25.32205078 12.95703125 24.94921875 C15.92661209 23.56947086 17.5431548 21.91369039 19 19 C19.5838196 16.0850745 19.5838196 16.0850745 19 13 C13.95418167 7.81001543 6.89585756 7.77757444 0 7 C0 4.69 0 2.38 0 0 Z " fill="#A0CB39" transform="translate(4,9)"/>
<path d="M0 0 C3.5578125 -0.12375 3.5578125 -0.12375 7.1875 -0.25 C7.92508545 -0.28641602 8.6626709 -0.32283203 9.42260742 -0.36035156 C12.96710458 -0.41970574 14.91169317 -0.05354404 17.95703125 1.79296875 C20 4 20 4 20.5 7.5625 C20 11 20 11 18.5 12.9375 C18.005 13.288125 17.51 13.63875 17 14 C18.0841347 17.07171498 19.30498007 19.4574701 21.125 22.1875 C23 25 23 25 23 27 C17.89667149 27.7918958 17.89667149 27.7918958 15 27 C13.01963416 24.83020786 11.66054077 22.62593729 10.2265625 20.06640625 C9.16799605 17.85863643 9.16799605 17.85863643 7 17 C7 20.3 7 23.6 7 27 C4.69 27 2.38 27 0 27 C0 18.09 0 9.18 0 0 Z M7 5 C7 7.31 7 9.62 7 12 C8.65 11.67 10.3 11.34 12 11 C12.33 9.68 12.66 8.36 13 7 C10.18490007 4.7226499 10.18490007 4.7226499 7 5 Z " fill="#929497" transform="translate(190,14)"/>
<path d="M0 0 C2.31 0 4.62 0 7 0 C7.99 2.64 8.98 5.28 10 8 C10.66 5.36 11.32 2.72 12 0 C14.31 0 16.62 0 19 0 C19.66 2.31 20.32 4.62 21 7 C21.33 7 21.66 7 22 7 C22.66 4.69 23.32 2.38 24 0 C25.98 0 27.96 0 30 0 C29.35346673 6.95023264 27.13972752 13.38177303 25 20 C22.69 20 20.38 20 18 20 C17.01 17.36 16.02 14.72 15 12 C14.01 14.64 13.02 17.28 12 20 C9.69 20 7.38 20 5 20 C4.16247839 17.04283593 3.33069969 14.084087 2.5 11.125 C2.26152344 10.28324219 2.02304687 9.44148438 1.77734375 8.57421875 C1.55175781 7.76855469 1.32617188 6.96289062 1.09375 6.1328125 C0.88427734 5.38918457 0.67480469 4.64555664 0.45898438 3.87939453 C0 2 0 2 0 0 Z " fill="#A0CB39" transform="translate(32,22)"/>
<path d="M0 0 C2.05078125 0.03255208 4.1015625 0.06510417 6.15234375 0.09765625 C7.65749021 4.22079683 9.15558747 8.34646327 10.65234375 12.47265625 C11.08160156 13.64828125 11.51085937 14.82390625 11.953125 16.03515625 C12.35917969 17.15664063 12.76523438 18.278125 13.18359375 19.43359375 C13.56064453 20.4704834 13.93769531 21.50737305 14.32617188 22.57568359 C15.15234375 25.09765625 15.15234375 25.09765625 15.15234375 27.09765625 C12.51234375 27.09765625 9.87234375 27.09765625 7.15234375 27.09765625 C6.82234375 25.11765625 6.49234375 23.13765625 6.15234375 21.09765625 C3.18234375 21.09765625 0.21234375 21.09765625 -2.84765625 21.09765625 C-3.17765625 23.07765625 -3.50765625 25.05765625 -3.84765625 27.09765625 C-6.48765625 27.09765625 -9.12765625 27.09765625 -11.84765625 27.09765625 C-10.11938408 20.79097885 -8.01067789 14.65660566 -5.72265625 8.53515625 C-5.45694824 7.82037109 -5.19124023 7.10558594 -4.91748047 6.36914062 C-2.56256102 0.13544191 -2.56256102 0.13544191 0 0 Z M1.15234375 8.09765625 C0.49234375 10.73765625 -0.16765625 13.37765625 -0.84765625 16.09765625 C0.80234375 16.09765625 2.45234375 16.09765625 4.15234375 16.09765625 C3.49234375 13.45765625 2.83234375 10.81765625 2.15234375 8.09765625 C1.82234375 8.09765625 1.49234375 8.09765625 1.15234375 8.09765625 Z " fill="#929498" transform="translate(172.84765625,13.90234375)"/>
<path d="M0 0 C1.75570312 0.04060547 1.75570312 0.04060547 3.546875 0.08203125 C4.43890625 0.11683594 5.3309375 0.15164063 6.25 0.1875 C6.25 2.4975 6.25 4.8075 6.25 7.1875 C2.95 6.8575 -0.35 6.5275 -3.75 6.1875 C-3.75 7.1775 -3.75 8.1675 -3.75 9.1875 C-2.863125 9.414375 -1.97625 9.64125 -1.0625 9.875 C2.83620077 11.41976823 4.72227986 12.84198805 7.25 16.1875 C7.8125 19.75 7.8125 19.75 7.25 23.1875 C5.62890625 25.3828125 5.62890625 25.3828125 3.25 27.1875 C0.0859375 27.61328125 0.0859375 27.61328125 -3.375 27.5 C-4.52226563 27.47550781 -5.66953125 27.45101562 -6.8515625 27.42578125 C-9.75 27.1875 -9.75 27.1875 -11.75 26.1875 C-11.75 23.8775 -11.75 21.5675 -11.75 19.1875 C-10.88375 19.5175 -10.0175 19.8475 -9.125 20.1875 C-5.79281725 21.17481341 -3.19840462 21.35170974 0.25 21.1875 C-1.995753 18.76899677 -4.1055814 16.95281628 -6.875 15.125 C-9.75 13.1875 -9.75 13.1875 -11.75 10.1875 C-11.52908938 4.00200253 -11.52908938 4.00200253 -9.1171875 1.48046875 C-5.94602832 -0.25163304 -3.58970609 -0.10769118 0 0 Z " fill="#929498" transform="translate(117.75,13.8125)"/>
<path d="M0 0 C2.4375 1.5 2.4375 1.5 4 4 C4.60385912 6.70446305 4.81448364 9.21725459 5 12 C1.04 12 -2.92 12 -7 12 C-6.67 12.66 -6.34 13.32 -6 14 C-3.03 14 -0.06 14 3 14 C3.042721 15.66611905 3.04063832 17.33382885 3 19 C1.28055699 20.71944301 -0.90415223 20.29345984 -3.25 20.375 C-7.20712116 20.31839619 -8.72941146 20.16447538 -12.1875 18.0625 C-14.62482741 13.94425713 -14.94028872 10.6760304 -14 6 C-10.37006351 0.19210161 -6.71083856 -0.91692646 0 0 Z M-6 5 C-6.33 5.99 -6.66 6.98 -7 8 C-5.35 8 -3.7 8 -2 8 C-2.33 7.01 -2.66 6.02 -3 5 C-3.99 5 -4.98 5 -6 5 Z " fill="#A0CB39" transform="translate(77,22)"/>
<path d="M0 0 C7.26 0 14.52 0 22 0 C22 1.98 22 3.96 22 6 C19.36 6 16.72 6 14 6 C14 12.93 14 19.86 14 27 C11.69 27 9.38 27 7 27 C7 20.07 7 13.14 7 6 C4.69 6 2.38 6 0 6 C0 4.02 0 2.04 0 0 Z " fill="#939497" transform="translate(212,14)"/>
<path d="M0 0 C2.31 0 4.62 0 7 0 C7 9.57 7 19.14 7 29 C4.69 29 2.38 29 0 29 C0 19.43 0 9.86 0 0 Z " fill="#A0CB39" transform="translate(84,13)"/>
<path d="M0 0 C1.98 0 3.96 0 6 0 C6 9.57 6 19.14 6 29 C4.02 29 2.04 29 0 29 C0 19.43 0 9.86 0 0 Z " fill="#A0CB3A" transform="translate(95,13)"/>
<path d="M0 0 C1.67542976 0.28604898 3.34385343 0.61781233 5 1 C5 1.66 5 2.32 5 3 C45.59 3 86.18 3 128 3 C128 3.33 128 3.66 128 4 C87.41 4 46.82 4 5 4 C5 4.99 5 5.98 5 7 C2.625 7.625 2.625 7.625 0 8 C-0.66 7.34 -1.32 6.68 -2 6 C-1.44444444 1.44444444 -1.44444444 1.44444444 0 0 Z " fill="#A0CB39" transform="translate(106,44)"/>
</svg>
